<svg width="16" height="16" viewBox="0 0 16 16" fill="none" xmlns="http://www.w3.org/2000/svg">
    <circle cx="8" cy="8" r="7" stroke="#1BA557"></circle>
    <path d="M11.5622 8.42667C11.5323 8.4093 11.5082 8.38407 11.4929 8.35399C11.4776 8.3239 11.4716 8.29023 11.4758 8.257C11.4827 8.17267 11.4866 8.08667 11.4866 8C11.4866 7.91333 11.4827 7.82733 11.4758 7.74233C11.4717 7.7092 11.4777 7.67564 11.493 7.64567C11.5083 7.6157 11.5324 7.59059 11.5622 7.57333C11.7632 7.46214 11.9098 7.27929 11.9699 7.0649C12.0301 6.8505 11.9988 6.62206 11.883 6.42967L11.3635 5.57C11.2465 5.37814 11.0546 5.23847 10.8301 5.18161C10.6055 5.12475 10.3665 5.15534 10.1655 5.26667C10.137 5.28276 10.1042 5.29066 10.0711 5.28942C10.0381 5.28818 10.006 5.27785 9.97895 5.25967C9.82501 5.15851 9.66282 5.06934 9.49395 4.993C9.46336 4.97909 9.43767 4.95696 9.42002 4.92931C9.40238 4.90167 9.39354 4.8697 9.39458 4.83733C9.39431 4.61534 9.30194 4.40251 9.13775 4.24554C8.97356 4.08857 8.75094 4.00026 8.51874 4H7.48111C7.24842 4.00044 7.02544 4.08921 6.8612 4.2468C6.69695 4.40438 6.6049 4.61787 6.60527 4.84033C6.60534 4.87183 6.59607 4.90269 6.57855 4.92936C6.56102 4.95602 6.53595 4.9774 6.50624 4.991C6.33722 5.06726 6.17492 5.15644 6.0209 5.25767C5.99338 5.27587 5.96096 5.28612 5.92751 5.28718C5.89406 5.28824 5.861 5.28008 5.83228 5.26367C5.63112 5.15275 5.39214 5.12272 5.16783 5.18016C4.94353 5.2376 4.75224 5.37781 4.63601 5.57L4.11685 6.42967C4.00105 6.62206 3.96979 6.8505 4.02992 7.0649C4.09006 7.27929 4.23667 7.46214 4.43762 7.57333C4.46754 7.5907 4.49161 7.61593 4.50694 7.64601C4.52228 7.6761 4.52823 7.70977 4.52409 7.743C4.51711 7.82733 4.51328 7.91333 4.51328 8C4.51328 8.08667 4.51711 8.17267 4.52409 8.25767C4.52818 8.2908 4.5222 8.32436 4.50686 8.35433C4.49153 8.3843 4.46749 8.40941 4.43762 8.42667C4.23667 8.53786 4.09006 8.72071 4.02992 8.9351C3.96979 9.1495 4.00105 9.37794 4.11685 9.57033L4.63636 10.43C4.75303 10.6222 4.94473 10.7623 5.16935 10.8195C5.39398 10.8767 5.63316 10.8463 5.83437 10.735C5.86285 10.7188 5.89562 10.7109 5.92872 10.7121C5.96182 10.7134 5.99384 10.7237 6.0209 10.742C6.17484 10.8432 6.33703 10.9323 6.5059 11.0087C6.53621 11.0225 6.56172 11.0443 6.57934 11.0717C6.59697 11.099 6.60597 11.1306 6.60527 11.1627C6.60554 11.3847 6.69791 11.5975 6.8621 11.7545C7.02629 11.9114 7.24891 11.9997 7.48111 12H8.51874C8.75143 11.9996 8.97441 11.9108 9.13865 11.7532C9.3029 11.5956 9.39495 11.3821 9.39458 11.1597C9.39451 11.1282 9.40378 11.0973 9.4213 11.0706C9.43883 11.044 9.4639 11.0226 9.4936 11.009C9.66263 10.9327 9.82493 10.8436 9.97895 10.7423C10.0065 10.7241 10.0389 10.7139 10.0723 10.7128C10.1058 10.7118 10.1388 10.7199 10.1676 10.7363C10.3688 10.847 10.6077 10.8769 10.8319 10.8194C11.0561 10.762 11.2474 10.622 11.3638 10.43L11.883 9.57067C11.9989 9.37824 12.0302 9.14972 11.9701 8.93524C11.91 8.72077 11.7633 8.53786 11.5622 8.42667ZM10.7892 8C10.7892 8.06833 10.7861 8.136 10.7805 8.20267C10.7666 8.36146 10.7999 8.52077 10.8765 8.66229C10.9531 8.80381 11.07 8.92179 11.2136 9.00267C11.2339 9.01388 11.2517 9.02882 11.266 9.04662C11.2802 9.06442 11.2907 9.08474 11.2968 9.10641C11.3028 9.12808 11.3043 9.15068 11.3013 9.17292C11.2982 9.19515 11.2905 9.21659 11.2788 9.236L10.7603 10.0953C10.7361 10.1346 10.6966 10.1631 10.6504 10.1745C10.6043 10.186 10.5553 10.1794 10.5141 10.1563C10.3711 10.0781 10.208 10.04 10.0433 10.0463C9.87869 10.0526 9.71923 10.1031 9.58321 10.192C9.46003 10.273 9.33026 10.3445 9.19515 10.4057C9.04589 10.4741 8.91992 10.5814 8.83181 10.7154C8.7437 10.8494 8.69705 11.0044 8.69725 11.1627C8.69725 11.2079 8.67845 11.2513 8.64497 11.2833C8.61149 11.3154 8.56608 11.3333 8.51874 11.3333H7.48111C7.45743 11.3332 7.434 11.3287 7.41218 11.3199C7.39035 11.3111 7.37057 11.2982 7.35397 11.2821C7.33737 11.2659 7.32428 11.2468 7.31546 11.2258C7.30665 11.2048 7.30227 11.1823 7.3026 11.1597C7.30218 11.002 7.25519 10.8477 7.16704 10.7145C7.07889 10.5813 6.95317 10.4746 6.80435 10.4067C6.66939 10.3454 6.53974 10.2739 6.41664 10.193C6.28017 10.104 6.12021 10.0537 5.95515 10.0478C5.79009 10.0419 5.62664 10.0807 5.48361 10.1597C5.44259 10.1823 5.39385 10.1884 5.3481 10.1767C5.30235 10.1651 5.26331 10.1365 5.23955 10.0973L4.72248 9.23733C4.69882 9.19811 4.6924 9.15152 4.70462 9.10778C4.71684 9.06404 4.74671 9.02672 4.78768 9.004C4.93129 8.92312 5.04811 8.80514 5.12471 8.66363C5.20132 8.52211 5.2346 8.36279 5.22072 8.204C5.21374 8.136 5.21061 8.06833 5.21061 8C5.21061 7.93167 5.21374 7.864 5.21932 7.79733C5.2332 7.63854 5.19992 7.47923 5.12332 7.33771C5.04672 7.19619 4.92989 7.07821 4.78628 6.99733C4.76596 6.98612 4.74816 6.97118 4.73388 6.95338C4.71961 6.93558 4.70914 6.91526 4.70309 6.89359C4.69703 6.87192 4.6955 6.84932 4.69859 6.82708C4.70168 6.80485 4.70932 6.78341 4.72108 6.764L5.23955 5.90367C5.25143 5.88412 5.26725 5.86702 5.28609 5.85335C5.30493 5.83969 5.32642 5.82973 5.34931 5.82406C5.3722 5.81839 5.39604 5.81711 5.41946 5.82031C5.44287 5.8235 5.46538 5.8311 5.4857 5.84267C5.6287 5.92095 5.79188 5.95912 5.95654 5.95281C6.12119 5.9465 6.28065 5.89597 6.41664 5.807C6.53982 5.72598 6.66959 5.65453 6.8047 5.59333C6.9538 5.52501 7.07966 5.41779 7.16776 5.28402C7.25585 5.15026 7.3026 4.9954 7.3026 4.83733C7.3026 4.79207 7.3214 4.74866 7.35488 4.71665C7.38836 4.68465 7.43377 4.66667 7.48111 4.66667H8.51874C8.54242 4.66675 8.56585 4.67133 8.58767 4.68012C8.6095 4.68892 8.62928 4.70176 8.64588 4.71791C8.66248 4.73406 8.67557 4.75319 8.68438 4.7742C8.6932 4.79522 8.69758 4.81769 8.69725 4.84033C8.69767 4.99797 8.74466 5.15229 8.83281 5.28552C8.92096 5.41874 9.04668 5.52544 9.1955 5.59333C9.33046 5.65461 9.46011 5.72606 9.58321 5.807C9.71971 5.8959 9.87966 5.94618 10.0447 5.95208C10.2097 5.95797 10.3732 5.91924 10.5162 5.84033C10.5573 5.81772 10.606 5.81158 10.6517 5.82326C10.6975 5.83495 10.7365 5.8635 10.7603 5.90267L11.2774 6.76267C11.301 6.80189 11.3075 6.84848 11.2952 6.89222C11.283 6.93596 11.2531 6.97328 11.2122 6.996C11.0686 7.07688 10.9517 7.19486 10.8751 7.33637C10.7985 7.47789 10.7653 7.63721 10.7791 7.796C10.7861 7.864 10.7892 7.93333 10.7892 8Z" fill="black"></path>
    <path d="M8.00114 6.33398C7.65634 6.33398 7.31929 6.43173 7.0326 6.61487C6.74591 6.798 6.52246 7.0583 6.39052 7.36285C6.25857 7.66739 6.22404 8.0025 6.29131 8.3258C6.35858 8.6491 6.52461 8.94607 6.76842 9.17916C7.01223 9.41225 7.32286 9.57098 7.66103 9.63529C7.9992 9.6996 8.34973 9.6666 8.66828 9.54045C8.98683 9.4143 9.2591 9.20068 9.45066 8.9266C9.64222 8.65252 9.74446 8.33029 9.74446 8.00065C9.74391 7.55879 9.56006 7.13517 9.23324 6.82272C8.90642 6.51028 8.46333 6.33451 8.00114 6.33398ZM8.00114 9.00065C7.79426 9.00065 7.59203 8.942 7.42001 8.83212C7.248 8.72224 7.11393 8.56606 7.03476 8.38333C6.9556 8.20061 6.93488 7.99954 6.97524 7.80556C7.0156 7.61158 7.11522 7.4334 7.26151 7.29354C7.40779 7.15369 7.59417 7.05845 7.79707 7.01987C7.99998 6.98128 8.21029 7.00108 8.40142 7.07677C8.59255 7.15246 8.75591 7.28063 8.87085 7.44508C8.98579 7.60953 9.04713 7.80287 9.04713 8.00065C9.04713 8.26587 8.93693 8.52022 8.74077 8.70776C8.54461 8.89529 8.27855 9.00065 8.00114 9.00065Z" fill="black"></path>
</svg>