<svg width="32" height="29" viewBox="0 0 32 29" fill="none" xmlns="http://www.w3.org/2000/svg"> <path d="M4.82344 14.7215V21.9629C4.82344 22.3313 5.12891 22.6367 5.49727 22.6367H7.75234C8.1207 24.0383 9.3875 25.0715 10.8969 25.0715C12.4062 25.0715 13.682 24.0383 14.0414 22.6367H22.7293C23.0977 24.0383 24.3645 25.0715 25.8738 25.0715C27.3832 25.0715 28.659 24.0383 29.0184 22.6367H30.6895C31.0578 22.6367 31.3633 22.3313 31.3633 21.9629V15.611C31.3633 15.4672 31.3184 15.3324 31.2375 15.2246L28.9016 11.9274C28.7758 11.7477 28.5691 11.6399 28.3535 11.6399H23.484V9.51956C23.484 9.1512 23.1785 8.84573 22.8102 8.84573H10.3938C9.92656 6.60862 7.94102 4.91956 5.56914 4.91956C2.84687 4.91956 0.636719 7.12971 0.636719 9.85198C0.636719 12.3137 2.46055 14.3621 4.82344 14.7215ZM10.8969 23.7239C9.8457 23.7239 8.99219 22.8703 8.99219 21.8192C8.99219 20.768 9.8457 19.9145 10.8969 19.9145C11.948 19.9145 12.8016 20.768 12.8016 21.8192C12.8016 22.8703 11.9391 23.7239 10.8969 23.7239ZM25.8738 23.7239C24.8227 23.7239 23.9691 22.8703 23.9691 21.8192C23.9691 20.768 24.8227 19.9145 25.8738 19.9145C26.925 19.9145 27.7785 20.768 27.7785 21.8192C27.7785 22.8703 26.925 23.7239 25.8738 23.7239ZM30.0156 15.8356V15.9434H26.35V12.9965H28.0031L30.0156 15.8356ZM25.0023 12.9965V16.6172C25.0023 16.9856 25.3078 17.291 25.6762 17.291H30.0156V21.2891H29.0813C28.8297 19.7438 27.482 18.5668 25.8738 18.5668C24.9305 18.5668 24.077 18.9711 23.484 19.618V12.9965H25.0023ZM22.1363 21.2981H14.1043C13.8527 19.7528 12.5051 18.5758 10.8969 18.5758C9.28867 18.5758 7.94102 19.7528 7.68945 21.2981H6.17109V14.7485C8.49805 14.461 10.3219 12.5563 10.4836 10.2024H22.1363V21.2981ZM5.56914 6.2762C7.5457 6.2762 9.15391 7.8844 9.15391 9.86096C9.15391 11.8375 7.5457 13.4457 5.56914 13.4457C3.59258 13.4457 1.98438 11.8285 1.98438 9.85198C1.98438 7.87541 3.59258 6.2762 5.56914 6.2762Z" fill="#2D2D2D"></path> <path d="M3.99717 11.4243C4.13193 11.5591 4.30264 11.6219 4.47334 11.6219C4.64404 11.6219 4.81475 11.5591 4.94951 11.4243L5.56943 10.8044L6.18936 11.4243C6.32412 11.5591 6.49482 11.6219 6.66553 11.6219C6.83623 11.6219 7.00693 11.5591 7.1417 11.4243C7.40225 11.1637 7.40225 10.7325 7.1417 10.4719L6.52178 9.85203L7.1417 9.23211C7.40225 8.97156 7.40225 8.54031 7.1417 8.27976C6.88115 8.01921 6.4499 8.01921 6.18936 8.27976L5.56943 8.89968L4.94951 8.27976C4.68896 8.01921 4.25771 8.01921 3.99717 8.27976C3.73662 8.54031 3.73662 8.97156 3.99717 9.23211L4.61709 9.85203L3.99717 10.4719C3.73662 10.7325 3.73662 11.1637 3.99717 11.4243Z" fill="#2D2D2D"></path> </svg>