<svg width="16" height="16" viewBox="0 0 16 16" fill="none" xmlns="http://www.w3.org/2000/svg">
    <path d="M8 9C9.10457 9 10 8.10457 10 7C10 5.89543 9.10457 5 8 5C6.89543 5 6 5.89543 6 7C6 8.10457 6.89543 9 8 9Z" stroke="#2D2D2D" stroke-linecap="round" stroke-linejoin="round"></path>
    <path d="M11 14V13C11 12.4696 10.842 11.9609 10.5607 11.5858C10.2794 11.2107 9.89782 11 9.5 11H6.5C6.10218 11 5.72064 11.2107 5.43934 11.5858C5.15804 11.9609 5 12.4696 5 13V14" stroke="#2D2D2D" stroke-linecap="round" stroke-linejoin="round"></path>
    <circle cx="8" cy="8" r="7" stroke="#1BA557"></circle>
</svg>