<svg width="640" height="486" viewBox="0 0 640 486" fill="none" xmlns="http://www.w3.org/2000/svg">
    <g clip-path="url(#clip0_90_404)">
        <g clip-path="url(#clip1_90_404)">
            <g clip-path="url(#clip2_90_404)">
                <path opacity="0.1" d="M199.834 494.31C275.431 494.31 336.714 485.021 336.714 473.562C336.714 462.103 275.431 452.814 199.834 452.814C124.238 452.814 62.9551 462.103 62.9551 473.562C62.9551 485.021 124.238 494.31 199.834 494.31Z" fill="#0ABD19"/>
                <path opacity="0.1" d="M197.621 21.8085C219.332 2.67424 253.416 -1.24483 284.446 0.299744C381.892 5.09484 469.847 51.5877 545.952 104.19C573.5 123.238 600.623 143.755 618.501 169.984C654.902 223.364 644.101 297.319 593.488 341.293C576.267 356.278 555.392 367.73 533.964 377.896C495.857 395.976 454.741 410.488 411.493 414.62C380.653 417.565 349.433 415.168 318.772 411.059C233.106 399.578 149.019 374.173 78.5448 330.735C47.6361 311.704 18.5024 287.994 5.75963 257.166C-6.98311 226.338 1.14896 187.274 32.7378 169.033C45.7918 161.483 61.3989 158.083 76.6775 154.872C99.1545 150.164 122.023 145.519 142.322 135.946C163.283 126.05 188.106 106.922 183.956 85.0324C179.501 61.5352 175.916 40.9082 197.621 21.8085Z" fill="#0ABD19"/>
                <path d="M530.708 50.9825C534.604 76.6639 523.763 99.6078 523.763 99.6078C523.763 99.6078 506.605 80.9172 502.698 55.2358C500.513 40.8275 502.963 27.2951 505.533 18.1775C505.858 16.9935 506.519 15.929 507.436 15.1134C508.354 14.2978 509.488 13.7662 510.702 13.5831C511.916 13.4 513.157 13.5733 514.275 14.082C515.392 14.5906 516.338 15.4128 516.997 16.4485C522.166 24.3789 528.523 36.5799 530.708 50.9825Z" fill="#0ABD19"/>
                <path d="M603.152 91.9136C607.013 91.8956 610.859 92.3819 614.593 93.3602C620.881 94.9739 620.978 103.878 614.725 105.63C611.013 106.688 607.179 107.257 603.32 107.325C589.182 107.48 577.638 99.8958 577.638 99.8958C577.638 99.8958 589.015 92.0692 603.152 91.9136Z" fill="#0ABD19"/>
                <path d="M563.397 52.8731C550.239 67.3333 547.456 86.2313 547.456 86.2313C547.456 86.2313 566.002 81.6782 579.154 67.2123C585.252 60.5095 589.125 52.8558 591.522 46.5738C591.976 45.3846 592.062 44.0862 591.768 42.8477C591.474 41.6092 590.813 40.4879 589.873 39.6298C588.933 38.7716 587.756 38.2164 586.496 38.0364C585.236 37.8564 583.951 38.0598 582.808 38.6203C576.745 41.6 569.495 46.1703 563.397 52.8731Z" fill="#0ABD19"/>
                <path d="M579.598 50.147H306.185C299.883 50.147 294.773 55.256 294.773 61.5584V395.469C294.773 401.771 299.883 406.88 306.185 406.88H579.598C585.9 406.88 591.009 401.771 591.009 395.469V61.5584C591.009 55.256 585.9 50.147 579.598 50.147Z" fill="#464353"/>
                <path opacity="0.1" d="M565.454 86.1333H320.328V370.894H565.454V86.1333Z" fill="#6415FF"/>
                <path d="M442.892 400.103C448.653 400.103 453.323 395.432 453.323 389.671C453.323 383.91 448.653 379.239 442.892 379.239C437.13 379.239 432.46 383.91 432.46 389.671C432.46 395.432 437.13 400.103 442.892 400.103Z" fill="white"/>
                <path d="M442.892 75.9378C441.917 75.9378 440.964 75.6488 440.154 75.1074C439.344 74.5659 438.712 73.7963 438.339 72.8959C437.966 71.9955 437.868 71.0047 438.059 70.0488C438.249 69.093 438.718 68.2149 439.407 67.5258C440.096 66.8367 440.974 66.3673 441.93 66.1772C442.886 65.9871 443.877 66.0847 444.777 66.4576C445.678 66.8306 446.447 67.4622 446.989 68.2725C447.53 69.0829 447.819 70.0356 447.819 71.0102C447.816 72.3161 447.296 73.5677 446.373 74.4912C445.449 75.4146 444.197 75.9348 442.892 75.9378Z" fill="white"/>
                <path d="M442.892 66.3708C443.809 66.3708 444.706 66.6429 445.469 67.1527C446.232 67.6625 446.827 68.3871 447.178 69.2349C447.529 70.0826 447.621 71.0155 447.442 71.9154C447.263 72.8154 446.821 73.6421 446.172 74.2909C445.523 74.9398 444.697 75.3817 443.797 75.5607C442.897 75.7397 441.964 75.6478 441.116 75.2967C440.268 74.9455 439.544 74.3509 439.034 73.5879C438.524 72.8249 438.252 71.9279 438.252 71.0103C438.254 69.7803 438.743 68.6011 439.613 67.7314C440.482 66.8617 441.662 66.3724 442.892 66.3708ZM442.892 65.7945C441.859 65.7888 440.848 66.0898 439.986 66.6595C439.125 67.2291 438.452 68.0417 438.052 68.9943C437.653 69.9468 437.546 70.9964 437.744 72.0101C437.942 73.0238 438.436 73.9558 439.164 74.6882C439.893 75.4205 440.822 75.9201 441.835 76.1237C442.847 76.3273 443.897 76.2257 444.852 75.8318C445.807 75.4379 446.623 74.7694 447.198 73.9111C447.772 73.0527 448.079 72.0431 448.079 71.0103C448.082 70.3267 447.951 69.6491 447.692 69.0165C447.433 68.3839 447.052 67.8086 446.57 67.3239C446.088 66.8392 445.514 66.4546 444.883 66.1921C444.252 65.9296 443.575 65.7945 442.892 65.7945Z" fill="white"/>
                <path d="M380.077 174.347H334.195C332.826 174.347 331.717 175.456 331.717 176.825V240.982C331.717 242.351 332.826 243.461 334.195 243.461H380.077C381.446 243.461 382.555 242.351 382.555 240.982V176.825C382.555 175.456 381.446 174.347 380.077 174.347Z" fill="white" stroke="white" stroke-width="0.576334" stroke-miterlimit="10"/>
                <path opacity="0.5" d="M373.674 191.764H340.598C338.325 191.764 336.483 193.606 336.483 195.879V209.578C336.483 211.851 338.325 213.693 340.598 213.693H373.674C375.946 213.693 377.789 211.851 377.789 209.578V195.879C377.789 193.606 375.946 191.764 373.674 191.764Z" fill="#0ABD19"/>
                <path d="M368.193 222.638H346.079C345.541 222.638 345.105 223.074 345.105 223.612V225.07C345.105 225.608 345.541 226.044 346.079 226.044H368.193C368.731 226.044 369.167 225.608 369.167 225.07V223.612C369.167 223.074 368.731 222.638 368.193 222.638Z" fill="#02A10F"/>
                <path d="M466.026 174.347H420.144C418.775 174.347 417.666 175.456 417.666 176.825V240.982C417.666 242.351 418.775 243.461 420.144 243.461H466.026C467.394 243.461 468.504 242.351 468.504 240.982V176.825C468.504 175.456 467.394 174.347 466.026 174.347Z" fill="white" stroke="white" stroke-width="0.576334" stroke-miterlimit="10"/>
                <path opacity="0.5" d="M454.556 185.142H431.878C431.413 185.142 431.036 185.518 431.036 185.983V197.233C431.036 197.698 431.413 198.075 431.878 198.075H454.556C455.021 198.075 455.398 197.698 455.398 197.233V185.983C455.398 185.518 455.021 185.142 454.556 185.142Z" fill="#0ABD19"/>
                <path d="M457.6 210.195H428.449C427.911 210.195 427.475 210.631 427.475 211.169V212.627C427.475 213.165 427.911 213.601 428.449 213.601H457.6C458.137 213.601 458.574 213.165 458.574 212.627V211.169C458.574 210.631 458.137 210.195 457.6 210.195Z" fill="#02A10F"/>
                <path d="M457.6 216.546H428.449C427.911 216.546 427.475 216.982 427.475 217.52V218.978C427.475 219.516 427.911 219.952 428.449 219.952H457.6C458.137 219.952 458.574 219.516 458.574 218.978V217.52C458.574 216.982 458.137 216.546 457.6 216.546Z" fill="#02A10F"/>
                <path d="M551.588 125.249H505.706C504.338 125.249 503.228 126.359 503.228 127.727V191.885C503.228 193.253 504.338 194.363 505.706 194.363H551.588C552.957 194.363 554.066 193.253 554.066 191.885V127.727C554.066 126.359 552.957 125.249 551.588 125.249Z" fill="white" stroke="white" stroke-width="0.576334" stroke-miterlimit="10"/>
                <path opacity="0.5" d="M544.355 135.975H512.939C512.474 135.975 512.098 136.351 512.098 136.816V150.579C512.098 151.044 512.474 151.42 512.939 151.42H544.355C544.82 151.42 545.197 151.044 545.197 150.579V136.816C545.197 136.351 544.82 135.975 544.355 135.975Z" fill="#0ABD19"/>
                <path opacity="0.5" d="M544.355 158.423H512.939C512.474 158.423 512.098 158.8 512.098 159.264V173.027C512.098 173.492 512.474 173.869 512.939 173.869H544.355C544.82 173.869 545.197 173.492 545.197 173.027V159.264C545.197 158.8 544.82 158.423 544.355 158.423Z" fill="#0ABD19"/>
                <path d="M518.103 186.317H511.66C510.44 186.317 509.452 187.306 509.452 188.525V188.876C509.452 190.095 510.44 191.084 511.66 191.084H518.103C519.322 191.084 520.31 190.095 520.31 188.876V188.525C520.31 187.306 519.322 186.317 518.103 186.317Z" fill="#02A10F"/>
                <path d="M531.871 186.317H525.428C524.209 186.317 523.221 187.306 523.221 188.525V188.876C523.221 190.095 524.209 191.084 525.428 191.084H531.871C533.091 191.084 534.079 190.095 534.079 188.876V188.525C534.079 187.306 533.091 186.317 531.871 186.317Z" fill="#02A10F"/>
                <path d="M545.64 186.317H539.197C537.978 186.317 536.989 187.306 536.989 188.525V188.876C536.989 190.095 537.978 191.084 539.197 191.084H545.64C546.859 191.084 547.847 190.095 547.847 188.876V188.525C547.847 187.306 546.859 186.317 545.64 186.317Z" fill="#02A10F"/>
                <path d="M551.467 223.445H505.585C504.216 223.445 503.107 224.554 503.107 225.923V290.081C503.107 291.449 504.216 292.559 505.585 292.559H551.467C552.836 292.559 553.945 291.449 553.945 290.081V225.923C553.945 224.554 552.836 223.445 551.467 223.445Z" fill="white" stroke="white" stroke-width="0.576334" stroke-miterlimit="10"/>
                <path opacity="0.5" d="M521.382 231.525H507.873C507.408 231.525 507.032 231.902 507.032 232.366V246.129C507.032 246.594 507.408 246.971 507.873 246.971H521.382C521.847 246.971 522.224 246.594 522.224 246.129V232.366C522.224 231.902 521.847 231.525 521.382 231.525Z" fill="#0ABD19"/>
                <path d="M543.104 256.376H513.953C513.416 256.376 512.979 256.813 512.979 257.35V258.809C512.979 259.347 513.416 259.783 513.953 259.783H543.104C543.642 259.783 544.078 259.347 544.078 258.809V257.35C544.078 256.813 543.642 256.376 543.104 256.376Z" fill="#02A10F"/>
                <path d="M543.104 263.264H513.953C513.416 263.264 512.979 263.7 512.979 264.238V265.696C512.979 266.234 513.416 266.67 513.953 266.67H543.104C543.642 266.67 544.078 266.234 544.078 265.696V264.238C544.078 263.7 543.642 263.264 543.104 263.264Z" fill="#02A10F"/>
                <path d="M543.104 270.151H513.953C513.416 270.151 512.979 270.587 512.979 271.125V272.583C512.979 273.121 513.416 273.557 513.953 273.557H543.104C543.642 273.557 544.078 273.121 544.078 272.583V271.125C544.078 270.587 543.642 270.151 543.104 270.151Z" fill="#02A10F"/>
                <path d="M411.804 207.255L411.026 207.63L404.721 210.662L404.144 210.932C404.106 210.95 404.064 210.96 404.022 210.961C403.98 210.963 403.937 210.955 403.898 210.94C403.859 210.924 403.823 210.9 403.793 210.87C403.763 210.84 403.739 210.805 403.724 210.765C403.717 210.727 403.717 210.688 403.724 210.65V208.858C403.724 208.777 403.691 208.699 403.634 208.642C403.577 208.584 403.499 208.552 403.418 208.552H388.093C388.012 208.552 387.934 208.52 387.875 208.463C387.817 208.406 387.784 208.328 387.782 208.247V205.717C387.784 205.635 387.817 205.557 387.875 205.5C387.934 205.443 388.012 205.411 388.093 205.411H403.435C403.517 205.41 403.595 205.376 403.652 205.318C403.709 205.26 403.741 205.181 403.741 205.1V203.267C403.735 203.229 403.735 203.19 403.741 203.152C403.757 203.113 403.781 203.078 403.811 203.048C403.842 203.019 403.877 202.996 403.917 202.981C403.956 202.966 403.998 202.959 404.04 202.961C404.082 202.962 404.124 202.972 404.162 202.991L404.738 203.261L411.026 206.322L411.804 206.702C411.856 206.727 411.901 206.766 411.932 206.815C411.963 206.864 411.98 206.921 411.98 206.979C411.98 207.037 411.963 207.094 411.932 207.143C411.901 207.192 411.856 207.231 411.804 207.255Z" fill="white" stroke="white" stroke-width="0.576334" stroke-miterlimit="10"/>
                <path d="M497.119 191.711L496.612 192.409L492.485 198.034L492.122 198.535C492.096 198.569 492.064 198.596 492.027 198.617C491.99 198.638 491.95 198.651 491.908 198.656C491.866 198.66 491.824 198.657 491.783 198.645C491.743 198.633 491.705 198.614 491.672 198.587C491.643 198.562 491.62 198.53 491.603 198.495L490.762 196.916C490.723 196.843 490.657 196.789 490.578 196.764C490.5 196.74 490.415 196.746 490.341 196.783L476.797 203.993C476.762 204.012 476.723 204.024 476.683 204.028C476.643 204.032 476.602 204.028 476.563 204.016C476.525 204.004 476.489 203.985 476.458 203.959C476.427 203.934 476.401 203.902 476.382 203.866L475.195 201.624C475.176 201.589 475.164 201.55 475.16 201.51C475.156 201.47 475.16 201.429 475.172 201.391C475.184 201.352 475.203 201.316 475.229 201.285C475.255 201.254 475.286 201.228 475.322 201.209L488.866 194.011C488.901 193.992 488.933 193.967 488.959 193.936C488.985 193.904 489.004 193.869 489.016 193.83C489.027 193.791 489.031 193.751 489.027 193.711C489.024 193.671 489.012 193.632 488.993 193.596L488.134 191.977C488.112 191.944 488.1 191.906 488.099 191.867C488.093 191.825 488.097 191.782 488.109 191.741C488.121 191.701 488.142 191.663 488.169 191.631C488.197 191.599 488.232 191.573 488.27 191.555C488.309 191.537 488.351 191.527 488.393 191.527H489.01L495.995 191.273L496.86 191.245C496.914 191.245 496.967 191.259 497.014 191.287C497.061 191.314 497.1 191.354 497.127 191.402C497.153 191.449 497.166 191.503 497.165 191.558C497.164 191.612 497.148 191.665 497.119 191.711Z" fill="white" stroke="white" stroke-width="0.576334" stroke-miterlimit="10"/>
                <path d="M497.073 221.255H496.214H489.234H488.618C488.576 221.255 488.534 221.246 488.495 221.229C488.457 221.212 488.422 221.188 488.393 221.157C488.365 221.126 488.343 221.09 488.329 221.05C488.315 221.01 488.309 220.968 488.312 220.926C488.314 220.888 488.324 220.85 488.341 220.816L489.113 219.197C489.131 219.161 489.141 219.121 489.144 219.081C489.146 219.041 489.14 219 489.127 218.962C489.113 218.924 489.092 218.889 489.065 218.859C489.038 218.829 489.006 218.805 488.969 218.788L475.137 212.148C475.063 212.112 475.007 212.048 474.98 211.971C474.953 211.893 474.958 211.808 474.993 211.733L476.088 209.457C476.105 209.42 476.129 209.387 476.159 209.359C476.189 209.332 476.224 209.311 476.262 209.297C476.3 209.284 476.341 209.278 476.381 209.281C476.422 209.284 476.461 209.294 476.497 209.313L490.33 215.958C490.404 215.992 490.489 215.996 490.566 215.969C490.643 215.943 490.707 215.887 490.744 215.814L491.54 214.16C491.561 214.112 491.594 214.071 491.637 214.04C491.679 214.01 491.728 213.99 491.78 213.985C491.832 213.979 491.884 213.987 491.932 214.007C491.98 214.028 492.021 214.061 492.053 214.102L492.439 214.581L496.779 220.067L497.315 220.747C497.354 220.792 497.38 220.848 497.388 220.907C497.396 220.966 497.387 221.027 497.361 221.081C497.335 221.135 497.294 221.18 497.243 221.211C497.192 221.242 497.132 221.257 497.073 221.255Z" fill="white" stroke="white" stroke-width="0.576334" stroke-miterlimit="10"/>
                <path d="M244.477 349.633L244.431 351.322L241.492 455.102H236.547L238.973 351.322L239.019 349.374L244.477 349.633Z" fill="#504F60"/>
                <path opacity="0.1" d="M244.477 349.633L244.431 351.322L241.492 455.102H236.547L238.973 351.322L239.019 349.374L244.477 349.633Z" fill="black"/>
                <path d="M273.092 437.547L269.392 437.535L214.381 437.42L211.453 437.414L213.009 432.602H272.7L273.092 437.547Z" fill="#504F60"/>
                <path opacity="0.1" d="M244.477 349.633L244.431 351.322H238.973L239.019 349.374L244.477 349.633Z" fill="black"/>
                <path d="M246.564 347.097H237.394V350.544H246.564V347.097Z" fill="#504F60"/>
                <path opacity="0.1" d="M214.871 432.602L214.381 437.42L211.453 437.414L213.009 432.602H214.871Z" fill="black"/>
                <path d="M222.766 347.034L222.611 348.526L210.41 468.882L204.819 468.623L217.677 348.526L217.821 347.16L222.766 347.034Z" fill="#504F60"/>
                <path opacity="0.1" d="M273.092 437.547L269.392 437.535L268.891 432.602H272.7L273.092 437.547Z" fill="black"/>
                <path d="M278.948 468.623L273.351 468.882L261.15 348.526L261 347.034L265.94 347.16L266.084 348.526L278.948 468.623Z" fill="#504F60"/>
                <path d="M302.744 228.361H179.461V346.573H302.744V228.361Z" fill="white"/>
                <path d="M327.55 228.361H154.8C153.485 228.361 152.419 229.427 152.419 230.741V344.192C152.419 345.507 153.485 346.573 154.8 346.573H327.55C328.865 346.573 329.93 345.507 329.93 344.192V230.741C329.93 229.427 328.865 228.361 327.55 228.361Z" fill="white"/>
                <path d="M243.503 188.83V217.376H238.696V188.83C238.696 188.193 238.95 187.581 239.4 187.131C239.851 186.68 240.462 186.427 241.1 186.427C241.737 186.427 242.348 186.68 242.799 187.131C243.25 187.581 243.503 188.193 243.503 188.83Z" fill="#504F60"/>
                <path opacity="0.1" d="M243.509 214.776H238.696V217.376H243.509V214.776Z" fill="black"/>
                <path d="M245.394 216.724V226.153H236.812V216.724C236.812 216.419 236.933 216.126 237.15 215.909C237.366 215.693 237.659 215.572 237.965 215.572H244.206C244.361 215.567 244.514 215.594 244.658 215.649C244.802 215.705 244.933 215.789 245.044 215.897C245.155 216.004 245.243 216.133 245.303 216.275C245.363 216.417 245.394 216.57 245.394 216.724Z" fill="#504F60"/>
                <path opacity="0.1" d="M241.1 223.358C242.105 223.358 242.921 222.543 242.921 221.537C242.921 220.531 242.105 219.716 241.1 219.716C240.094 219.716 239.278 220.531 239.278 221.537C239.278 222.543 240.094 223.358 241.1 223.358Z" fill="black"/>
                <path d="M241.1 222.966C242.105 222.966 242.921 222.151 242.921 221.145C242.921 220.139 242.105 219.324 241.1 219.324C240.094 219.324 239.278 220.139 239.278 221.145C239.278 222.151 240.094 222.966 241.1 222.966Z" fill="#3F3D56"/>
                <path opacity="0.1" d="M245.394 224.983H236.812V226.153H245.394V224.983Z" fill="black"/>
                <path opacity="0.1" d="M248.903 226.545H233.296V229.145H248.903V226.545Z" fill="black"/>
                <path d="M248.903 225.762H233.296V228.361H248.903V225.762Z" fill="#504F60"/>
                <path opacity="0.1" d="M210.151 343.495H274.458C275.375 343.495 276.255 343.859 276.903 344.508C277.552 345.156 277.916 346.036 277.916 346.953H206.704C206.704 346.038 207.067 345.16 207.713 344.512C208.359 343.864 209.235 343.498 210.151 343.495Z" fill="black"/>
                <path opacity="0.1" d="M217.822 347.16L222.767 347.034L222.611 348.526H217.678L217.822 347.16Z" fill="black"/>
                <path opacity="0.1" d="M246.564 347.097H237.394V348.526H246.564V347.097Z" fill="black"/>
                <path opacity="0.1" d="M266.084 348.526H261.15L261 347.034L265.94 347.16L266.084 348.526Z" fill="black"/>
                <path d="M210.151 344.302H274.458C275.375 344.302 276.255 344.666 276.903 345.315C277.552 345.963 277.916 346.843 277.916 347.76H206.704C206.704 346.843 207.068 345.963 207.717 345.315C208.365 344.666 209.245 344.302 210.162 344.302H210.151Z" fill="#504F60"/>
                <path d="M298.439 242.245C298.57 242.224 298.703 242.234 298.829 242.274C298.956 242.314 299.071 242.382 299.166 242.473C299.261 242.565 299.334 242.677 299.379 242.801C299.424 242.926 299.44 243.059 299.425 243.19C298.589 251.258 299.125 259.523 300.03 267.574C300.451 271.257 301.021 275.153 302.652 277.885C302.756 278.051 302.802 278.247 302.781 278.441C302.76 278.636 302.674 278.817 302.537 278.957C302.082 279.311 301.51 279.482 300.935 279.435L275.213 279.58C275.083 279.581 274.954 279.552 274.836 279.496C274.718 279.439 274.615 279.357 274.534 279.255C274.453 279.152 274.396 279.033 274.368 278.906C274.34 278.778 274.341 278.646 274.372 278.519C276.441 269.701 275.997 260.076 275.167 250.93C274.758 246.429 274.522 244.014 277.882 243.697C281.34 243.386 284.798 243.242 288.256 242.953C289.085 242.884 295.736 242.688 298.439 242.245Z" fill="white" stroke="#33313F" stroke-width="1.729" stroke-miterlimit="10"/>
                <path d="M278.757 295.089C278.627 295.069 278.493 295.079 278.367 295.118C278.241 295.158 278.126 295.226 278.031 295.318C277.935 295.409 277.862 295.521 277.818 295.646C277.773 295.77 277.757 295.903 277.772 296.034C278.608 304.103 278.072 312.367 277.161 320.419C276.746 324.102 276.175 327.998 274.544 330.735C274.44 330.9 274.394 331.095 274.415 331.288C274.436 331.482 274.522 331.663 274.66 331.801C275.115 332.156 275.687 332.326 276.262 332.28L301.984 332.43C302.114 332.429 302.243 332.398 302.36 332.341C302.477 332.284 302.58 332.201 302.66 332.098C302.741 331.996 302.798 331.877 302.826 331.75C302.855 331.622 302.854 331.49 302.825 331.363C300.756 322.545 301.2 312.921 302.03 303.774C302.439 299.273 302.675 296.858 299.315 296.541C295.955 296.224 292.399 296.086 288.941 295.798C288.111 295.729 281.46 295.533 278.757 295.089Z" fill="white" stroke="#33313F" stroke-width="1.729" stroke-miterlimit="10"/>
                <path d="M286.313 309.935C289.302 309.795 292.296 309.832 295.281 310.044C295.474 310.063 295.656 310.148 295.794 310.284C295.933 310.42 296.02 310.6 296.042 310.794L296.324 313.151C296.338 313.204 296.34 313.259 296.327 313.312C296.315 313.365 296.291 313.415 296.255 313.456C296.191 313.502 296.114 313.522 296.036 313.514C294.779 313.549 293.523 313.404 292.272 313.514C291.494 313.577 290.722 313.727 289.967 313.814C288.691 313.926 287.408 313.949 286.129 313.883C284.326 313.914 282.528 313.693 280.786 313.226C280.786 313.226 280.89 311.272 280.89 311.088C280.89 310.177 280.861 310.096 281.8 310.073L286.313 309.935Z" stroke="#33313F" stroke-width="1.15267" stroke-miterlimit="10" stroke-linecap="round"/>
                <path d="M286.313 320.562C289.302 320.703 292.297 320.664 295.281 320.447C295.474 320.429 295.656 320.344 295.794 320.208C295.933 320.071 296.02 319.891 296.042 319.698L296.324 317.347C296.338 317.293 296.34 317.237 296.328 317.182C296.315 317.128 296.291 317.078 296.255 317.035C296.191 316.99 296.114 316.969 296.036 316.978C294.779 316.943 293.523 317.093 292.272 316.978C291.494 316.92 290.722 316.77 289.967 316.684C288.691 316.569 287.408 316.545 286.129 316.615C284.326 316.584 282.528 316.805 280.786 317.272C280.786 317.272 280.89 319.22 280.89 319.41C280.89 320.32 280.861 320.395 281.8 320.424L286.313 320.562Z" stroke="#33313F" stroke-width="1.15267" stroke-miterlimit="10" stroke-linecap="round"/>
                <path d="M286.313 324.724C289.302 324.583 292.297 324.622 295.281 324.839C295.474 324.858 295.656 324.942 295.794 325.079C295.933 325.215 296.02 325.395 296.042 325.588L296.324 327.94C296.338 327.993 296.34 328.05 296.328 328.104C296.315 328.158 296.291 328.208 296.255 328.251C296.191 328.296 296.114 328.317 296.036 328.309C294.779 328.343 293.523 328.193 292.272 328.309C291.494 328.366 290.722 328.522 289.967 328.608C288.691 328.719 287.408 328.74 286.129 328.672C284.326 328.705 282.528 328.485 280.786 328.02C280.786 328.02 280.89 326.067 280.89 325.876C280.89 324.966 280.861 324.891 281.8 324.868L286.313 324.724Z" stroke="#33313F" stroke-width="1.15267" stroke-miterlimit="10" stroke-linecap="round"/>
                <path d="M290.1 275.396C290.363 276.029 290.451 276.722 290.353 277.401C290.354 277.456 290.34 277.51 290.313 277.557C290.281 277.588 290.243 277.611 290.201 277.626C290.159 277.641 290.115 277.647 290.071 277.643L284.596 277.856C284.596 277.856 284.901 276.243 284.941 276.127C285.132 275.47 285.61 275.643 286.227 275.609L290.1 275.396Z" fill="white" stroke="#33313F" stroke-width="1.15267" stroke-miterlimit="10" stroke-linecap="round"/>
                <path d="M298.37 275.396C298.632 276.03 298.717 276.722 298.618 277.401C298.621 277.455 298.609 277.509 298.583 277.557C298.551 277.587 298.513 277.61 298.471 277.625C298.43 277.64 298.385 277.646 298.341 277.643L292.86 277.856C292.86 277.856 293.172 276.243 293.212 276.127C293.396 275.47 293.875 275.643 294.497 275.609L298.37 275.396Z" fill="white" stroke="#33313F" stroke-width="1.15267" stroke-miterlimit="10" stroke-linecap="round"/>
                <path d="M295.068 247.881L295.805 254.221C295.83 254.45 295.809 254.682 295.743 254.902C295.676 255.123 295.567 255.328 295.42 255.506C295.274 255.684 295.093 255.83 294.889 255.937C294.685 256.044 294.462 256.109 294.232 256.129C289.554 256.499 284.854 256.468 280.181 256.037C279.766 255.997 279.379 255.808 279.092 255.505C278.805 255.202 278.637 254.805 278.619 254.388C278.532 253.258 278.366 252.135 278.124 251.028C277.933 249.875 277.726 248.763 279.086 248.423C280.446 248.083 282.308 248.325 283.795 248.296C285.577 248.262 287.354 248.212 289.126 248.146C289.621 248.146 295.068 247.853 295.068 247.881Z" stroke="#33313F" stroke-width="1.729" stroke-miterlimit="10"/>
                <path d="M295.068 270.785L295.794 264.445C295.818 264.216 295.797 263.984 295.731 263.764C295.665 263.543 295.555 263.338 295.408 263.16C295.262 262.982 295.081 262.836 294.877 262.729C294.673 262.622 294.45 262.557 294.22 262.537C289.543 262.168 284.842 262.197 280.169 262.624C279.753 262.664 279.365 262.854 279.078 263.158C278.791 263.462 278.624 263.86 278.607 264.278C278.52 265.408 278.354 266.531 278.112 267.638C277.922 268.791 277.714 269.903 279.074 270.243C280.434 270.583 282.296 270.341 283.783 270.37C285.564 270.404 287.339 270.45 289.114 270.52C289.621 270.537 295.068 270.831 295.068 270.785Z" stroke="#33313F" stroke-width="1.729" stroke-miterlimit="10"/>
                <path d="M287.662 299.353C287.47 301.463 287.349 303.576 287.299 305.693C285.183 305.675 283.076 305.434 281.011 304.973C280.848 304.965 280.689 304.922 280.545 304.846C280.401 304.77 280.276 304.664 280.177 304.534C280.079 304.404 280.01 304.254 279.976 304.095C279.942 303.936 279.943 303.771 279.979 303.613C279.939 302.299 279.247 299.365 281.097 299.181C281.651 299.123 287.656 299.457 287.662 299.353Z" stroke="#33313F" stroke-width="1.15267" stroke-miterlimit="10" stroke-linecap="round"/>
                <path d="M185.898 270.56C186.169 270.531 186.444 270.562 186.701 270.652C186.959 270.741 187.193 270.887 187.387 271.079C187.581 271.27 187.731 271.502 187.824 271.758C187.917 272.015 187.952 272.288 187.927 272.56C187.264 280.231 187.789 288.086 188.653 295.734C189.039 299.135 189.552 302.714 190.912 305.394C191.031 305.623 191.088 305.88 191.079 306.138C191.07 306.396 190.995 306.648 190.861 306.869C190.726 307.09 190.538 307.273 190.313 307.4C190.088 307.527 189.834 307.594 189.575 307.595L164.055 307.745C163.903 307.746 163.752 307.713 163.614 307.648C163.477 307.582 163.355 307.487 163.26 307.368C163.164 307.25 163.096 307.111 163.061 306.963C163.026 306.815 163.025 306.661 163.058 306.512C165.081 297.74 164.637 288.161 163.813 279.09C163.398 274.589 163.168 272.174 166.522 271.857C169.98 271.551 173.438 271.407 176.867 271.113C177.599 271.056 182.832 270.894 185.898 270.56Z" fill="white" stroke="#33313F" stroke-width="1.729" stroke-miterlimit="10" stroke-linecap="round"/>
                <path d="M221.401 270.416C221.261 270.394 221.118 270.406 220.984 270.448C220.849 270.491 220.726 270.565 220.625 270.663C220.523 270.761 220.446 270.881 220.398 271.015C220.351 271.148 220.335 271.29 220.352 271.43C221.176 279.459 220.64 287.712 219.735 295.734C219.32 299.417 218.75 303.296 217.124 306.033C217.01 306.227 216.972 306.456 217.017 306.676C217.061 306.896 217.186 307.092 217.366 307.226C217.802 307.503 218.315 307.632 218.83 307.595L244.483 307.745C244.624 307.745 244.763 307.713 244.889 307.651C245.015 307.589 245.126 307.499 245.212 307.388C245.298 307.277 245.358 307.147 245.387 307.009C245.415 306.871 245.411 306.729 245.376 306.592C243.33 297.792 243.768 288.178 244.598 279.072C245.007 274.571 245.244 272.156 241.889 271.839C238.431 271.534 234.973 271.39 231.515 271.096C230.668 271.044 224.156 270.854 221.401 270.416Z" fill="white" stroke="#33313F" stroke-width="1.729" stroke-miterlimit="10"/>
                <path d="M170.62 275.655L183.668 293.06" stroke="#33313F" stroke-width="1.15267" stroke-miterlimit="10" stroke-linecap="round"/>
                <path d="M183.668 274.352L171.052 293.93" stroke="#33313F" stroke-width="1.15267" stroke-miterlimit="10" stroke-linecap="round"/>
                <path d="M228.847 276.473L235.953 285.954" stroke="#33313F" stroke-width="1.15267" stroke-miterlimit="10" stroke-linecap="round"/>
                <path d="M235.953 275.758L229.083 286.426" stroke="#33313F" stroke-width="1.15267" stroke-miterlimit="10" stroke-linecap="round"/>
                <path d="M174.931 298.622C177.921 298.483 180.918 298.519 183.904 298.731C184.097 298.752 184.277 298.837 184.415 298.973C184.553 299.109 184.641 299.288 184.665 299.481L184.942 301.838C184.955 301.891 184.957 301.947 184.946 302.001C184.935 302.055 184.912 302.105 184.878 302.149C184.812 302.189 184.736 302.209 184.659 302.207C183.403 302.241 182.141 302.091 180.89 302.207C180.112 302.264 179.345 302.414 178.585 302.501C177.308 302.613 176.026 302.636 174.746 302.57C172.945 302.601 171.149 302.38 169.409 301.913C169.375 301.913 169.513 299.965 169.513 299.775C169.513 298.864 169.479 298.789 170.418 298.76L174.931 298.622Z" stroke="#33313F" stroke-width="1.15267" stroke-miterlimit="10" stroke-linecap="round"/>
                <path d="M229.752 289.919C232.743 289.779 235.739 289.817 238.725 290.034C238.919 290.053 239.1 290.138 239.239 290.274C239.377 290.41 239.465 290.59 239.486 290.784L239.763 293.135C239.776 293.188 239.778 293.244 239.767 293.298C239.756 293.352 239.733 293.403 239.699 293.446C239.636 293.491 239.558 293.512 239.48 293.504C238.224 293.538 236.962 293.389 235.711 293.504C234.933 293.561 234.167 293.717 233.406 293.798C232.13 293.913 230.847 293.936 229.567 293.867C227.765 293.898 225.966 293.677 224.225 293.21C224.196 293.21 224.329 291.262 224.329 291.072C224.329 290.161 224.3 290.086 225.239 290.057L229.752 289.919Z" stroke="#33313F" stroke-width="1.15267" stroke-miterlimit="10" stroke-linecap="round"/>
                <path d="M234.322 296.449C231.333 296.31 228.339 296.346 225.354 296.559C225.161 296.577 224.98 296.662 224.841 296.798C224.703 296.935 224.615 297.115 224.594 297.308L224.328 299.659C224.312 299.712 224.309 299.769 224.32 299.823C224.331 299.877 224.356 299.928 224.392 299.97C224.455 300.016 224.533 300.036 224.611 300.028C225.867 300.063 227.124 299.919 228.38 300.028C229.158 300.086 229.925 300.241 230.685 300.328C231.962 300.437 233.244 300.46 234.524 300.397C236.327 300.429 238.125 300.208 239.866 299.74C239.895 299.74 239.763 297.786 239.763 297.602C239.763 296.685 239.797 296.61 238.858 296.587L234.322 296.449Z" stroke="#33313F" stroke-width="1.15267" stroke-miterlimit="10" stroke-linecap="round"/>
                <path d="M197.027 292.184C197.027 292.184 205.505 291.752 207.027 292.184" stroke="#33313F" stroke-width="1.729" stroke-miterlimit="10"/>
                <path d="M207.038 287.62C207.038 287.62 210.733 291.314 210.733 292.184C210.733 293.054 205.949 296.097 205.949 296.097" stroke="#33313F" stroke-width="1.729" stroke-miterlimit="10"/>
                <path d="M252.477 284.3C252.477 284.3 260.159 280.703 261.732 280.53" stroke="#33313F" stroke-width="1.729" stroke-miterlimit="10"/>
                <path d="M260.015 276.306C260.015 276.306 264.828 278.335 265.156 279.136C265.485 279.937 262.205 284.565 262.205 284.565" stroke="#33313F" stroke-width="1.729" stroke-miterlimit="10"/>
                <path d="M252.396 293.51C252.396 293.51 260.205 296.824 261.387 297.884" stroke="#33313F" stroke-width="1.729" stroke-miterlimit="10"/>
                <path d="M263.381 293.774C263.381 293.774 265.11 298.714 264.706 299.497C264.303 300.281 258.695 300.927 258.695 300.927" stroke="#33313F" stroke-width="1.729" stroke-miterlimit="10"/>
                <path d="M282.705 275.396C282.967 276.03 283.052 276.722 282.953 277.401C282.956 277.455 282.944 277.509 282.918 277.557C282.886 277.587 282.848 277.61 282.806 277.625C282.765 277.64 282.72 277.646 282.676 277.643L277.195 277.856C277.195 277.856 277.507 276.243 277.547 276.127C277.731 275.47 278.215 275.643 278.832 275.609L282.705 275.396Z" fill="white" stroke="#33313F" stroke-width="1.15267" stroke-miterlimit="10" stroke-linecap="round"/>
                <path d="M179.167 325.064L181.104 323.26L179.375 323.191L178.47 324.58L179.167 325.064Z" fill="#33313F"/>
                <path d="M165.237 337.697L167.289 335.063L167.744 334.59L174.026 328.009L176.164 325.773L177.167 325.651L178.608 324.222L179.455 324.966L178.054 326.602L178.078 327.461L175.893 329.83L169.726 336.527L169.329 336.953L166.851 339.247L165.237 337.697Z" fill="#65617D"/>
                <path d="M167.744 334.591L174.026 328.009L175.894 329.83L169.727 336.527L167.744 334.591Z" fill="#33313F"/>
                <path d="M177.225 337.126C175.398 335.427 173.811 333.488 172.504 331.363C169.738 327.052 165.116 324.724 161.946 323.565V322.165L162.142 322.125L162.055 320.822H162.142L161.917 317.364V317.335L160.776 300.178C160.776 300.178 156.713 288.738 163.934 278.185C171.156 267.632 164.384 257.512 157.595 253.552C157.595 253.552 154.436 236.839 157.145 232.879C153.471 230.764 149.684 228.85 145.803 227.145C145.739 226.937 145.688 226.73 145.636 226.511C145.561 224.955 145.463 223.399 145.376 221.842C145.467 221.034 145.615 220.232 145.82 219.445C145.907 219.116 146.005 218.788 146.108 218.448C149.336 217.215 152.116 215.036 154.085 212.197C156.054 209.358 157.121 205.99 157.145 202.535C157.147 200.519 156.783 198.52 156.073 196.634C156.437 196.034 156.715 195.386 156.897 194.709C157.329 192.928 156.84 191.026 155.825 189.222C154.016 185.314 149.503 181.655 146.229 180.3C141.538 178.398 134.478 178.848 129.591 179.436C126.847 179.764 123.718 180.681 122.726 183.193C122.363 184.116 122.358 185.136 122.104 186.075C121.078 189.914 116.646 191.7 113.908 194.639C111.488 197.233 110.45 200.743 109.644 204.161C107.396 213.956 106.86 224.066 108.059 234.043C108.335 236.349 108.704 238.625 109.096 240.908C107.448 243.213 105.961 247.288 106.641 254.365L101.223 279.873L98.9699 294.829C98.9699 294.829 97.6155 300.985 103.004 306.264C106.462 309.63 110.641 315.318 113.217 319.001C112.095 322.262 111.54 325.69 111.574 329.139C111.632 330.706 111.718 332.222 111.828 333.663C112.056 336.724 112.636 339.748 113.557 342.677C114.191 348.82 115.442 356.676 117.891 361.696L118.79 388.524C118.79 388.524 117.436 413.156 114.756 417.992C112.076 422.827 120.617 463.736 120.617 463.736V469.453L119.176 473.683L118.813 473.412C112.047 481.769 118.813 484.847 118.813 484.847C118.813 484.847 120.657 484.933 123.602 485.048C123.352 486.221 123.5 487.443 124.022 488.522C124.544 489.601 125.41 490.476 126.484 491.008C126.484 491.008 164.828 492.765 171.6 491.008C178.371 489.25 176.562 483.089 172.948 483.515C171.571 483.688 169.536 483.325 167.548 482.812C169.652 480.363 167.969 477.049 165.283 477.36C161.675 477.798 153.554 474.605 153.554 474.605L153.514 474.657C153.255 474.558 152.989 474.477 152.719 474.415C149.702 473.737 146.723 472.904 143.791 471.919C142.062 468.214 138.028 458.255 140.91 450.532C142.212 447.039 142.639 442.394 142.639 437.887C142.708 424.291 144.708 410.773 148.581 397.74L153.992 379.297C153.992 379.297 161.664 356.86 162.113 350.705L162.084 341.749C168.424 345.783 173.467 344.573 176.683 342.688C177.152 342.411 177.549 342.028 177.842 341.568C178.135 341.109 178.315 340.587 178.367 340.045C178.42 339.503 178.344 338.956 178.146 338.449C177.947 337.942 177.631 337.489 177.225 337.126ZM117.015 290.443C117.171 289.798 117.297 289.095 117.407 288.351C118.467 288.351 119.534 288.351 120.594 288.317C121.913 290.996 122.467 293.988 122.196 296.962C119.753 296.207 116.099 294.357 117.015 290.472V290.443Z" fill="url(#paint0_linear_90_404)"/>
                <path d="M121.303 467.315L119.574 472.502L125.216 478.144L143.883 482.484L157.341 481.181L156.471 476.404C156.212 475.378 155.676 474.444 154.922 473.703C154.167 472.962 153.224 472.443 152.194 472.202C146.661 470.9 136.115 467.937 133.896 463.816L121.303 467.315Z" fill="#DB8B8B"/>
                <path opacity="0.1" d="M121.303 467.315L119.574 472.502L125.216 478.144L143.883 482.484L157.341 481.181L156.471 476.404C156.212 475.378 155.676 474.444 154.922 473.703C154.167 472.962 153.224 472.443 152.194 472.202C146.661 470.9 136.115 467.937 133.896 463.816L121.303 467.315Z" fill="black"/>
                <path d="M152.996 479.879L150.391 476.421L152.996 472.386C152.996 472.386 160.805 475.539 164.28 475.107C167.756 474.675 169.467 480.749 162.978 482.484C156.488 484.219 119.568 482.484 119.568 482.484C119.568 482.484 113.056 479.447 119.568 471.199L125.211 475.539C125.211 475.539 134.76 480.726 139.538 479.879H152.996Z" fill="#2E3037"/>
                <path d="M164.712 487.262L151.255 488.564L132.587 484.219L126.928 478.576L127.389 477.199L128.034 475.262L128.668 473.366L141.255 469.908C141.894 470.948 142.769 471.822 143.809 472.461C147.895 475.257 155.243 477.28 159.554 478.288C159.733 478.334 159.917 478.386 160.09 478.449C161.002 478.753 161.824 479.282 162.477 479.987C163.131 480.692 163.597 481.551 163.83 482.484L164.712 487.262Z" fill="#DB8B8B"/>
                <path opacity="0.1" d="M164.712 487.261L151.255 488.564L132.587 484.218L126.928 478.576L127.389 477.199L132.576 481.181C132.576 481.181 142.131 486.368 146.903 485.521H160.355L157.75 482.063L160.09 478.449C161.002 478.753 161.824 479.282 162.477 479.987C163.131 480.692 163.597 481.551 163.83 482.484L164.712 487.261Z" fill="black"/>
                <path d="M160.356 485.959L157.751 482.501L160.356 478.467C160.356 478.467 168.171 481.619 171.64 481.187C175.11 480.755 176.827 486.829 170.343 488.57C163.86 490.31 126.928 488.57 126.928 488.57C126.928 488.57 120.416 485.527 126.928 477.279L132.57 481.619C132.57 481.619 142.126 486.806 146.898 485.965L160.356 485.959Z" fill="#2E3037"/>
                <path d="M149.52 234.176C149.52 234.176 128.686 236.343 131.723 227.664C132.574 225.202 132.794 222.567 132.363 219.998C131.823 216.814 130.566 213.795 128.686 211.169L148.218 214.206C147.047 216.162 146.157 218.273 145.572 220.477C143.244 229.692 149.52 234.176 149.52 234.176Z" fill="#DB8B8B"/>
                <path d="M113.926 333.15C113.926 333.15 114.358 351.817 118.698 360.935L119.568 387.412C119.568 387.412 118.266 411.727 115.661 416.499C113.056 421.271 121.303 461.649 121.303 461.649V468.594C121.303 468.594 135.192 473.781 139.1 467.724L135.192 416.067L136.921 344.44L113.926 333.15Z" fill="#35323E"/>
                <path opacity="0.1" d="M113.92 333.15C113.92 333.15 114.352 351.817 118.692 360.935L119.562 387.412C119.562 387.412 118.26 411.727 115.655 416.499C113.05 421.271 121.297 461.649 121.297 461.649V468.594C121.297 468.594 135.187 473.781 139.094 467.724L135.187 416.067L136.916 344.44L113.92 333.15Z" fill="black"/>
                <path d="M105.24 273.246L102.635 280.19L100.468 294.95C100.175 297.007 100.376 299.103 101.056 301.066C101.736 303.028 102.874 304.801 104.376 306.235C109.563 311.422 116.531 322.297 116.531 322.297L124.778 297.555C124.778 297.555 116.531 296.253 117.862 290.611C119.193 284.968 118.727 274.548 118.727 274.548L105.24 273.246Z" fill="#0ABD19"/>
                <path opacity="0.1" d="M143.826 472.45C138.253 481.216 129.591 476.248 128.052 475.262L128.686 473.366L141.273 469.908C141.913 470.943 142.788 471.814 143.826 472.45Z" fill="black"/>
                <path d="M161.243 350.082C160.805 356.157 153.428 378.323 153.428 378.323L148.241 396.541C144.5 409.413 142.564 422.742 142.489 436.146C142.489 440.59 142.08 445.177 140.829 448.624C137.371 458.174 144.287 471.199 144.287 471.199C138.213 482.051 127.792 474.657 127.792 474.657V467.741C127.792 467.741 119.568 429.956 121.741 422.579C123.914 415.202 124.784 395.227 124.784 395.227V359.2C117.825 352.268 113.596 343.061 112.871 333.265C112.767 331.841 112.681 330.349 112.629 328.798C112.277 319.001 118.969 307.52 121.585 303.44C122.219 302.448 122.611 301.895 122.611 301.895L160.932 317.099L161.018 317.133V318.614V321.9L161.243 350.082Z" fill="#35323E"/>
                <path opacity="0.1" d="M148.218 214.206C147.047 216.162 146.157 218.273 145.572 220.477C143.45 221.286 141.188 221.66 138.919 221.578C136.65 221.496 134.42 220.959 132.363 219.998C131.823 216.814 130.566 213.795 128.686 211.169L148.218 214.206Z" fill="black"/>
                <path d="M139.538 220.718C148.89 220.718 156.471 213.137 156.471 203.786C156.471 194.434 148.89 186.853 139.538 186.853C130.186 186.853 122.605 194.434 122.605 203.786C122.605 213.137 130.186 220.718 139.538 220.718Z" fill="#DB8B8B"/>
                <path opacity="0.1" d="M161.243 321.865L161.052 321.9C142.852 325.64 120.012 306.673 120.012 306.673C120.626 305.64 121.154 304.559 121.591 303.44C122.225 302.448 122.617 301.895 122.617 301.895L160.931 317.099L161.029 318.614L161.243 321.865Z" fill="black"/>
                <path d="M156.465 233.744C156.465 233.744 132.155 218.984 124.34 225.058L113.488 238.948C113.488 238.948 106.543 241.121 107.846 255.01L102.659 280.19L118.283 284.098C118.283 284.098 127.401 292.778 120.012 305.37C120.012 305.37 143.019 324.47 161.255 320.563L159.941 300.178C159.941 300.178 156.033 288.887 162.978 278.473C169.923 268.059 163.41 258.071 156.903 254.163C156.897 254.146 153.86 237.646 156.465 233.744Z" fill="#0ABD19"/>
                <path d="M157.768 322.297C157.768 322.297 166.885 324.026 171.225 330.983C172.478 333.071 174.008 334.981 175.772 336.66C176.164 337.022 176.467 337.471 176.657 337.97C176.846 338.47 176.918 339.006 176.865 339.538C176.813 340.069 176.638 340.581 176.354 341.034C176.071 341.486 175.686 341.867 175.231 342.146C171.773 344.221 166.171 345.495 159.093 339.662C146.915 329.68 157.768 322.297 157.768 322.297Z" fill="#DB8B8B"/>
                <path opacity="0.1" d="M144.31 241.968C144.31 241.968 135.631 241.098 133.458 263.673C131.285 286.248 127.816 291.452 127.816 291.452C127.816 291.452 125.643 303.175 130.853 310.119C136.063 317.064 146.045 331.876 146.045 331.876C146.045 331.876 156.903 334.919 159.07 324.061L145.613 298.887C145.613 298.887 143.446 290.201 148.65 284.127C153.854 278.052 157.768 237.645 144.31 241.968Z" fill="black"/>
                <path d="M145.18 240.688C145.18 240.688 136.495 239.818 134.328 262.393C132.161 284.968 128.686 290.172 128.686 290.172C128.686 290.172 126.513 301.907 131.723 308.823C136.933 315.739 146.915 330.527 146.915 330.527C146.915 330.527 157.767 333.57 159.94 322.718L146.483 297.538C146.483 297.538 144.31 288.853 149.52 282.778C154.73 276.703 158.626 236.343 145.18 240.688Z" fill="#0ABD19"/>
                <path opacity="0.1" d="M152.344 256.953C152.344 256.953 153.209 270.41 149.301 277.793C145.394 285.176 145.394 294.72 149.301 299.93" fill="black"/>
                <path opacity="0.1" d="M154.511 240.47C154.511 240.47 151.053 237.012 141.054 236.562C131.054 236.112 126.732 233.104 126.732 233.104" fill="black"/>
                <path opacity="0.1" d="M130.386 181.908C127.746 182.231 124.732 183.136 123.781 185.62C123.43 186.53 123.424 187.533 123.176 188.502C122.19 192.294 117.926 194.057 115.292 196.956C112.986 199.515 111.943 202.979 111.188 206.351C109.021 216.018 108.497 225.982 109.638 235.824C110.485 243.023 112.214 250.106 112.704 257.339C113.194 264.572 112.301 272.179 108.347 278.254C106.618 280.871 104.405 283.164 103.2 286.04C105.69 288.057 109.125 288.346 112.329 288.455C116.064 288.582 119.799 288.582 123.533 288.455C125.493 288.386 127.539 288.259 129.227 287.268C130.478 286.468 131.507 285.366 132.219 284.063C134.351 280.438 134.893 276.081 134.801 271.874C134.708 267.667 134.046 263.488 133.965 259.281C133.925 256.976 134.103 254.555 135.423 252.676C136.374 251.322 137.821 250.411 139.06 249.31C143.711 245.195 145.301 238.591 145.457 232.384C145.613 226.176 144.592 219.958 145.117 213.774C145.319 211.347 146.224 208.443 148.61 207.97C149.359 207.82 150.16 207.97 150.875 207.682C152.788 206.95 152.604 204.253 153.145 202.282C153.762 200.063 155.652 198.351 156.183 196.115C157.433 190.864 150.748 184.588 146.385 182.767C141.861 180.877 135.066 181.332 130.386 181.908Z" fill="black"/>
                <path d="M129.931 181.044C127.291 181.366 124.277 182.271 123.326 184.75C123.081 185.699 122.888 186.661 122.75 187.631C121.764 191.423 117.493 193.187 114.86 196.092C112.554 198.645 111.511 202.109 110.756 205.486C108.598 215.161 108.084 225.131 109.235 234.977C110.082 242.175 111.811 249.264 112.295 256.492C112.779 263.719 111.897 271.332 107.944 277.407C106.215 280.023 104.001 282.317 102.797 285.193C105.287 287.216 108.722 287.498 111.926 287.608C115.661 287.735 119.395 287.735 123.13 287.608C125.089 287.539 127.135 287.418 128.824 286.421C130.076 285.624 131.103 284.521 131.81 283.216C133.948 279.591 134.484 275.234 134.397 271.027C134.311 266.819 133.637 262.641 133.562 258.434C133.521 256.128 133.7 253.708 135.014 251.835C135.971 250.475 137.417 249.564 138.656 248.469C143.302 244.348 144.898 237.743 145.054 231.536C145.209 225.329 144.183 219.111 144.708 212.926C144.915 210.506 145.82 207.595 148.2 207.129C148.955 206.979 149.757 207.129 150.471 206.835C152.385 206.103 152.2 203.411 152.742 201.434C153.353 199.216 155.243 197.51 155.779 195.273C157.03 190.017 150.344 183.747 145.982 181.92C141.423 180.018 134.634 180.462 129.931 181.044Z" fill="#35323E"/>
            </g>
        </g>
    </g>
    <defs>
        <linearGradient id="paint0_linear_90_404" x1="138.604" y1="491.815" x2="138.604" y2="178.952" gradientUnits="userSpaceOnUse">
            <stop stop-color="#808080" stop-opacity="0.25"/>
            <stop offset="0.54" stop-color="#808080" stop-opacity="0.12"/>
            <stop offset="1" stop-color="#808080" stop-opacity="0.1"/>
        </linearGradient>
        <clipPath id="clip0_90_404">
            <rect width="640" height="486" rx="4" fill="white"/>
        </clipPath>
        <clipPath id="clip1_90_404">
            <rect width="640" height="494.31" fill="white"/>
        </clipPath>
        <clipPath id="clip2_90_404">
            <rect width="639.996" height="494.31" fill="white" transform="translate(0.00195312)"/>
        </clipPath>
    </defs>
</svg>
